<?xml version="1.0" encoding="UTF-8"?>
<svg width="1200pt" height="1200pt" version="1.1" viewBox="0 0 1200 1200" xmlns="http://www.w3.org/2000/svg">
 <g fill="#caabf9">
  <path d="m401.55 326.44-52.949-52.949c-14.625-14.664-38.289-14.664-52.914 0l-284.74 284.93c-6.5625 6.5625-9.75 15.039-10.387 23.664l-0.5625-0.003906v35.137h0.41406c0.48828 8.8516 3.8242 17.625 10.539 24.414l284.74 284.93c14.625 14.664 38.289 14.664 52.914 0l52.949-52.949c14.625-14.664 14.625-38.324 0-52.988l-220.47-220.65 220.46-220.57c14.629-14.586 14.629-38.285 0.003906-52.949z"/>
  <path d="m1199.4 582.04c-0.67578-8.5859-3.8633-17.102-10.387-23.664l-284.74-284.93c-14.625-14.664-38.289-14.664-52.914 0l-52.949 52.949c-14.625 14.664-14.625 38.324 0 52.949l220.46 220.57-220.46 220.61c-14.625 14.664-14.625 38.324 0 52.988l52.949 52.949c14.625 14.664 38.289 14.664 52.914 0l284.74-284.93c6.75-6.8242 10.086-15.562 10.539-24.414l0.41016 0.003907v-35.098z"/>
  <path d="m712.5 262.5h-75c-17.211 0-32.176 11.699-36.375 28.426l-150 600c-2.8125 11.211-0.30078 23.062 6.8242 32.137 7.0898 9.1133 18 14.438 29.551 14.438h75c17.211 0 32.176-11.699 36.375-28.426l150-600c2.8125-11.211 0.30078-23.062-6.8242-32.137-7.0898-9.1133-18-14.438-29.551-14.438z"/>
 </g>
</svg>
